<?xml version="1.0" encoding="UTF-8"?> <svg xmlns="http://www.w3.org/2000/svg" xmlns:xlink="http://www.w3.org/1999/xlink" id="Layer_1" data-name="Layer 1" version="1.1" viewBox="0 0 595.3 184.3"><defs><style> .cls-1 { fill: url(#New_Gradient_Swatch_3); } .cls-1, .cls-2, .cls-3, .cls-4, .cls-5, .cls-6, .cls-7, .cls-8, .cls-9, .cls-10, .cls-11, .cls-12, .cls-13, .cls-14, .cls-15, .cls-16, .cls-17, .cls-18, .cls-19 { stroke-width: 0px; } .cls-2 { fill: url(#New_Gradient_Swatch_3-3); } .cls-3 { fill: url(#New_Gradient_Swatch_3-4); } .cls-4 { fill: url(#New_Gradient_Swatch_3-9); } .cls-5 { fill: url(#New_Gradient_Swatch_3-8); } .cls-6 { fill: url(#New_Gradient_Swatch_3-7); } .cls-7 { fill: url(#New_Gradient_Swatch_3-6); } .cls-8 { fill: url(#New_Gradient_Swatch_3-2); } .cls-9 { fill: url(#New_Gradient_Swatch_3-5); } .cls-10 { fill: url(#linear-gradient); } .cls-11 { fill: url(#New_Gradient_Swatch_3-11); } .cls-12 { fill: url(#New_Gradient_Swatch_3-10); } .cls-13 { fill: url(#linear-gradient-4); } .cls-14 { fill: url(#linear-gradient-2); } .cls-15 { fill: url(#linear-gradient-3); } .cls-16 { fill: url(#linear-gradient-7); } .cls-17 { fill: url(#linear-gradient-5); } .cls-18 { fill: url(#linear-gradient-6); } .cls-19 { fill: #d0d2d3; } </style><linearGradient id="New_Gradient_Swatch_3" data-name="New Gradient Swatch 3" x1="144.3" y1="82.6" x2="144.3" y2="23.8" gradientUnits="userSpaceOnUse"><stop offset="0" stop-color="#046938"></stop><stop offset=".8" stop-color="#039447"></stop><stop offset="1" stop-color="#044928"></stop></linearGradient><linearGradient id="linear-gradient" x1="260.3" y1="39.1" x2="260.3" y2="23.8" gradientUnits="userSpaceOnUse"><stop offset="0" stop-color="#ccc"></stop><stop offset=".8" stop-color="#929497"></stop></linearGradient><linearGradient id="New_Gradient_Swatch_3-2" data-name="New Gradient Swatch 3" x1="259.2" y1="111.2" x2="259.2" y2="96.3" xlink:href="#New_Gradient_Swatch_3"></linearGradient><linearGradient id="New_Gradient_Swatch_3-3" data-name="New Gradient Swatch 3" x1="284.4" y1="111.2" x2="284.4" y2="96.3" xlink:href="#New_Gradient_Swatch_3"></linearGradient><linearGradient id="New_Gradient_Swatch_3-4" data-name="New Gradient Swatch 3" x1="318.4" y1="111.2" x2="318.4" y2="96.3" xlink:href="#New_Gradient_Swatch_3"></linearGradient><linearGradient id="New_Gradient_Swatch_3-5" data-name="New Gradient Swatch 3" x1="353.6" y1="111.2" x2="353.6" y2="96.3" xlink:href="#New_Gradient_Swatch_3"></linearGradient><linearGradient id="New_Gradient_Swatch_3-6" data-name="New Gradient Swatch 3" x1="387" y1="111.2" x2="387" y2="96.3" xlink:href="#New_Gradient_Swatch_3"></linearGradient><linearGradient id="New_Gradient_Swatch_3-7" data-name="New Gradient Swatch 3" x1="422.3" y1="111.2" x2="422.3" y2="96.3" xlink:href="#New_Gradient_Swatch_3"></linearGradient><linearGradient id="New_Gradient_Swatch_3-8" data-name="New Gradient Swatch 3" x1="456.6" y1="111.2" x2="456.6" y2="96.3" xlink:href="#New_Gradient_Swatch_3"></linearGradient><linearGradient id="New_Gradient_Swatch_3-9" data-name="New Gradient Swatch 3" x1="478" y1="111.2" x2="478" y2="96.3" xlink:href="#New_Gradient_Swatch_3"></linearGradient><linearGradient id="New_Gradient_Swatch_3-10" data-name="New Gradient Swatch 3" x1="502.9" y1="111.2" x2="502.9" y2="96.3" xlink:href="#New_Gradient_Swatch_3"></linearGradient><linearGradient id="New_Gradient_Swatch_3-11" data-name="New Gradient Swatch 3" x1="535.6" y1="111.2" x2="535.6" y2="96.3" xlink:href="#New_Gradient_Swatch_3"></linearGradient><linearGradient id="linear-gradient-2" x1="261.8" y1="100.2" x2="261.8" y2="96.3" xlink:href="#linear-gradient"></linearGradient><linearGradient id="linear-gradient-3" x1="480.5" y1="100.2" x2="480.5" y2="96.3" xlink:href="#linear-gradient"></linearGradient><linearGradient id="linear-gradient-4" x1="422.3" y1="82.6" x2="422.3" y2="23.8" gradientUnits="userSpaceOnUse"><stop offset="0" stop-color="#5d6266"></stop><stop offset=".8" stop-color="#ccc"></stop><stop offset="1" stop-color="#a1a6aa"></stop></linearGradient><linearGradient id="linear-gradient-5" x1="65.6" y1="159.3" x2="65.6" y2="118.8" gradientUnits="userSpaceOnUse"><stop offset="0" stop-color="#110c0d"></stop><stop offset=".5" stop-color="#6e6f71"></stop><stop offset="1" stop-color="#110c0d"></stop></linearGradient><linearGradient id="linear-gradient-6" x1="160.8" y1="154.3" x2="160.8" y2="117.1" xlink:href="#linear-gradient-5"></linearGradient><linearGradient id="linear-gradient-7" x1="248.3" y1="154.9" x2="248.3" y2="118.1" xlink:href="#linear-gradient-5"></linearGradient></defs><path class="cls-1" d="M274.4,23.8l-27.5,58.9h-52.3c-.8,0-1.8-.2-3.1-.5-1.2-.3-2.2-.8-2.9-1.3-5-3.8-9.7-7.5-14.1-11-4.4-3.5-8.9-7.3-13.5-11.3-1.1-.9-1.2-4.2,1.4-8.2.5-.7,2.5-3.5,5.9-3.7h17.7s22.8,0,22.8,0l4.4-9.4h-27.2s-46,0-46,0l17.1-13.4h75c5.5,0,5.6,4.5,5.5,5.6,0,1-.4,2.1-.9,3.1l-8.9,19c-1.7,3.1-6.7,8.7-12.7,8.7h-25.3c1,1.1,2.2,2.2,3.7,3.2,1.4,1.1,2.9,2.1,4.5,2.9,1.6.9,3.2,1.6,4.7,2.1,1.6.5,3,.8,4.3.8h24.9l21.2-45.4h21.2ZM113.5,82.6h21.2l16.8-36h-21.2l-16.8,36ZM78.1,46.5l-27.9,13.5h44.6l-4.3,9.3h-52.1l14.9-32h78.1l17.1-13.5H47.2c-1.3,0-2.7.3-4,.8-1.3.5-2.5,1.2-3.7,2-1.1.8-2.2,1.8-3.1,2.8-.9,1-1.6,2.1-2.1,3.1l-19.4,41.5c-.5,1.1-.8,2.1-.9,3.1,0,1,0,1.9.5,2.8.4.8,1,1.5,1.8,2,.8.5,1.9.8,3.2.8h77.1c1.3,0,2.7-.3,4-.8,1.3-.5,2.5-1.2,3.6-2,1.1-.8,2.1-1.7,3-2.8.9-1,1.6-2.1,2.1-3.1l12.9-27.5h-44.2Z"></path><rect class="cls-19" x="14.2" y="103.2" width="225" height="1.1"></rect><polygon class="cls-10" points="246.1 39.1 274.4 23.8 267.2 39.1 246.1 39.1"></polygon><g><path class="cls-8" d="M258.4,111.2h-5.4l7-14.9h5.4l-7,14.9Z"></path><path class="cls-2" d="M268.9,111.2l7-14.9h5.2l8.6,10.3,4.8-10.3h5.4l-7,14.9h-5.2l-8.7-10.2-4.8,10.2h-5.4Z"></path><path class="cls-3" d="M310.3,96.3h21.7c.3,0,.6,0,.8.2.2.1.4.3.5.5,0,.2.1.4.1.7,0,.3-.1.5-.2.8l-4.9,10.5c-.1.3-.3.5-.5.8-.2.3-.5.5-.8.7-.3.2-.6.4-.9.5-.3.1-.7.2-1,.2h-21.7l7-14.9ZM310.3,107.8h13.2l3.8-8.1h-13.2l-3.8,8.1Z"></path><path class="cls-9" d="M363.3,96.3h5.4l-5.9,12.7c-.1.3-.3.5-.5.8-.2.3-.5.5-.8.7-.3.2-.6.4-.9.5-.3.1-.7.2-1,.2h-19.5c-.3,0-.6,0-.8-.2-.2-.1-.4-.3-.5-.5,0-.2-.1-.4-.1-.7,0-.3,0-.5.2-.8l5.9-12.7h5.4l-5.4,11.5h13.2l5.4-11.5Z"></path><path class="cls-7" d="M392.1,105.5h-15c-.3,0-.6,0-.8-.2-.2-.1-.4-.3-.5-.5,0-.2-.1-.4-.1-.7,0-.3,0-.5.2-.8l2.2-4.8c.1-.3.3-.5.5-.8.2-.3.5-.5.8-.7.3-.2.6-.4.9-.5.3-.1.7-.2,1-.2h20.4l-1.6,3.4h-17.2l-1.1,2.3h15c.3,0,.6,0,.8.2.2.1.4.3.5.5,0,.2.1.4.1.7,0,.3-.1.5-.2.8l-2.2,4.8c-.1.3-.3.5-.5.8-.2.3-.5.5-.8.7-.3.2-.6.4-.9.5-.3.1-.7.2-1,.2h-20.4l1.6-3.4h17.2l1.1-2.3Z"></path><path class="cls-6" d="M418.9,111.2h-5.4l5.4-11.5h-8.2l1.6-3.4h21.6l-1.6,3.4h-8l-5.4,11.5Z"></path><path class="cls-5" d="M437.4,111.2l7-14.9h21.7c.3,0,.6,0,.8.2.2.1.4.3.5.5,0,.2.1.4.1.7,0,.3-.1.5-.2.8l-2.2,4.8c-.1.3-.3.5-.5.8-.2.3-.5.5-.8.7-.3.2-.6.4-.9.5-.3.1-.7.2-1,.2h-6.4c.3.3.6.5.9.8.4.3.7.5,1.1.7.4.2.8.4,1.2.5.4.1.8.2,1.1.2h16.1l-1.6,3.4h-17.7c-.2,0-.5,0-.8-.1-.3,0-.5-.2-.7-.3-1.3-1-2.4-1.9-3.6-2.8-1.1-.9-2.3-1.9-3.4-2.9,0-.2,0-.3-.1-.5,0-.1,0-.3,0-.4,0-.2,0-.5.2-.7,0-.2.2-.3.4-.5.2-.2.3-.3.5-.5.2-.1.4-.2.6-.3.2,0,.4-.1.5-.1h10.2l1.1-2.4h-13.2l-5.4,11.5h-5.4Z"></path><path class="cls-4" d="M477.2,111.2h-5.4l7-14.9h5.4l-7,14.9Z"></path><path class="cls-12" d="M489.1,111c-.2-.1-.4-.3-.5-.5,0-.2-.1-.4-.1-.7,0-.3,0-.5.2-.8l4.9-10.5c.1-.3.3-.5.5-.8.2-.3.5-.5.8-.7.3-.2.6-.4.9-.5.3-.1.7-.2,1-.2h20.4l-1.6,3.4h-17.2l-3.8,8.1h17.2l-1.6,3.4h-20.4c-.3,0-.6,0-.8-.2ZM497.5,105.5l1.6-3.4h13.7l-1.6,3.4h-13.7Z"></path><path class="cls-11" d="M540.7,105.5h-15c-.3,0-.6,0-.8-.2-.2-.1-.4-.3-.5-.5,0-.2-.1-.4-.1-.7,0-.3,0-.5.2-.8l2.2-4.8c.1-.3.3-.5.5-.8.2-.3.5-.5.8-.7.3-.2.6-.4.9-.5.3-.1.7-.2,1-.2h20.4l-1.6,3.4h-17.2l-1.1,2.3h15c.3,0,.6,0,.8.2.2.1.4.3.5.5,0,.2.1.4.1.7,0,.3-.1.5-.2.8l-2.2,4.8c-.1.3-.3.5-.5.8-.2.3-.5.5-.8.7-.3.2-.6.4-.9.5-.3.1-.7.2-1,.2h-20.4l1.6-3.4h17.2l1.1-2.3Z"></path></g><polygon class="cls-14" points="258.1 100.2 265.4 96.3 263.5 100.2 258.1 100.2"></polygon><polygon class="cls-15" points="476.9 100.2 484.2 96.3 482.3 100.2 476.9 100.2"></polygon><path class="cls-13" d="M459.2,82.6l27.5-58.9h20.3l34.1,40.4,18.9-40.4h21.2l-27.5,58.9h-20.3l-34.2-40.4-18.8,40.4h-21.2ZM445.7,46.7h21.1l-12.7,27.3c-.5,1.1-1.2,2.1-2.1,3.1-.9,1-1.9,1.9-3,2.8-1.1.8-2.3,1.5-3.6,2-1.3.5-2.6.8-4,.8h-77.1c-1.3,0-2.4-.3-3.2-.8-.8-.5-1.4-1.2-1.8-2-.4-.8-.5-1.7-.5-2.8,0-1,.3-2.1.9-3.1l12.7-27.3h21.2l-10.5,22.5h52.1l10.5-22.5ZM473.9,26.5c-.4-.8-1-1.5-1.8-2-.8-.5-1.9-.8-3.2-.8h-172.3c-1.3,0-2.7.3-4,.8-1.3.5-2.5,1.2-3.7,2-1.1.8-2.2,1.8-3.1,2.8-.9,1-1.6,2.1-2.1,3.1l-19.4,41.5c-.5,1.1-.8,2.1-.9,3.1,0,1,0,1.9.5,2.8.4.8,1,1.5,1.8,2,.8.5,1.9.8,3.2.8h78.5l6.3-13.5h-66l14.9-32h93s75.4,0,75.4,0l2.2-4.8c.5-1,.8-2.1.9-3.1,0-1,0-2-.4-2.8Z"></path><g><path class="cls-17" d="M65.3,123.3c-1.9,2.6-3.9,5.9-5.9,9.9-2,4-3.7,8-5.1,11.8-1.4,3.8-2.1,6.6-2.1,8.1v.2s0,.7,0,.7h.9c.2,0,.3,0,.4.2,0,0,0,.1,0,.2,0,.3-.5.5-1.4.6-.2,0-.4,0-.6,0-.9,0-1.3-.7-1.3-1.9,0-1.9.6-4.7,1.9-8.5,1.3-3.7,2.9-7.6,4.9-11.7,1.3-2.7,2.5-4.9,3.5-6.5h0c0,0-.3.1-.7.5-5.9,5.9-13.1,13.1-21.4,21.6-2.3,2.4-3.7,3.8-4.3,4.3-.6.5-1.2.7-1.8.7-1.2,0-1.7-.8-1.6-2.3,0-1.6.6-4.6,1.8-9.1.8-2.8,1.6-5.2,2.3-7.3,0,0-.2.1-.4.4-.2.3-.5.6-.8,1.1-.3.4-.7,1-1.1,1.5-3.6,4.9-6.2,8.4-7.7,10.3-1.5,1.9-3,3.5-4.3,4.8-1.6,1.6-2.8,2.6-3.7,3-.2.2-.7.3-1.5.3s-1,0-1.2-.2c-.2-.2-.3-.3-.3-.5s0-.3.2-.4c.1-.1.4-.2.7-.3,1.2-.1,3.1-1.6,5.7-4.3,2.1-1.9,5.3-5.9,9.7-11.8,2-2.7,3.7-5,5.1-6.9,1.4-1.9,2.2-3.1,2.5-3.6.3-.5.8-1.2,1.4-2.3.7-1.1,1.1-1.7,1.3-1.8.3,0,.6-.1.9-.1.5,0,.8,0,.9.3.1,0,.2.2.2.3,0,.3-.3,1-1,2.1-2.9,4.8-5.3,10.6-7.2,17.5-1.1,3.9-1.6,6.4-1.6,7.5s0,.4,0,.5c0,0,0,.1.1.1s.3-.2.7-.5c.3-.3,1.6-1.6,4-3.9,2.4-2.4,5.3-5.2,8.7-8.6,7.4-7.4,12.4-12.3,14.8-14.6,1.8-1.7,3-2.9,3.7-3.7.9-1.2,1.7-1.7,2.6-1.7s1.1.2,1.1.6c0,.2-.1.3-.3.5-.8.8-1.8,1.9-2.8,3.3ZM67,134.7c-.2-.1-.5-.2-.9-.2s-.8,0-1.1.3c-.9,1-1.8,2.7-2.8,5.1-.4.9-.6,1.5-.6,1.8s0,.3.2.4c.2.1.4.2.6.2s.4,0,.5-.1c.3-.1.4-.3.4-.7,0-.7,1-2.3,2.9-4.9.6-.8,1-1.3,1-1.5s0-.3-.2-.4ZM67,130.6c-.3.3-.5.9-.6,1.8,0,.2,0,.3,0,.5,0,.5.2.8.6.9h.4c.4,0,.8,0,1.1-.2.1,0,.2-.2.2-.3s0-.2,0-.3v-.2c0-.3.1-.6.4-.9.3-.4.5-.7.5-1,0-.4-.4-.6-1.2-.6s-1,0-1,.3ZM85.2,134.7c-.2-.1-.5-.2-.9-.2s-.8,0-1.1.3c-.6.7-1.3,1.8-2,3.2-.6.4-1,.7-1.4,1-.8.4-1.3.6-1.6.6s-.2,0-.3,0c-.1-.1-.2-.3-.2-.7s0-1.1.2-1.9c.2-.7.3-1.2.3-1.6s-.1-.8-.4-.9c0-.2-.4-.3-1-.3s-.7,0-1.2.2c-.9.3-1.9.9-3.1,1.9-.6.5-1,.9-1.3,1.1l-.3.2.2-.3c.1-.2.5-.8,1-1.6.5-.9.8-1.4.9-1.5,0,0,0,0,0-.2,0-.2-.1-.4-.4-.6-.1,0-.3-.1-.6-.1-.4,0-.8,0-1.1.2-.9,1-2,3.1-3.5,6.3-.3.6-.4,1.1-.4,1.3s0,.3.2.4c.1.1.4.2.7.2h.5s2.4-2.4,2.4-2.4c1.5-1.5,2.6-2.6,3.3-3.1,1.2-.9,2.1-1.3,2.5-1.3s.2,0,.2.2h0c0,0,0,.2-.1.5,0,.3-.2.6-.3.9-.2.8-.3,1.4-.3,1.9,0,1,.3,1.6,1,1.8.3.1.6.2.9.2s1-.1,1.6-.4c.3-.2.7-.4,1.1-.7,0,.2-.1.4-.2.5-.4.9-.6,1.5-.6,1.8s0,.3.2.4c.2.1.4.2.6.2s.4,0,.5-.1c.3-.1.4-.3.4-.7,0-.7,1-2.3,2.9-4.9.6-.8,1-1.3,1-1.5s0-.3-.2-.4ZM85.1,133.7h.4c.4,0,.8,0,1.1-.2.1,0,.2-.2.2-.3s0-.2,0-.3v-.2c0-.3.1-.6.4-.9.3-.4.5-.7.5-1,0-.4-.4-.6-1.2-.6s-1,0-1,.3c-.3.3-.5.9-.6,1.8,0,.2,0,.3,0,.5,0,.5.2.8.6.9ZM117,135.9c0,.1-.2.3-.6.5-.7.4-1.8,1.2-3.3,2.3-1.5,1.2-3.2,2.7-5.3,4.6l-1.3,1.2-.6,1.4c-2.8,6.5-5.7,10.8-8.5,12.9-.2.3-.7.5-1.5.5h-.5c-.4,0-.6,0-.7-.2-.2-.2-.4-.4-.4-.8,0-.6.3-1.4.8-2.5,1-2.1,2.9-4.6,5.9-7.4l2.1-2.1,1.2-3c1.3-3.3,2.2-5.4,2.7-6.2.2-.3.3-.5.4-.7,0-.2.1-.3.1-.3s0,0,0,0c-.1,0-.6.3-1.5,1-.8.6-2,1.6-3.5,2.9-1.4,1.2-2.3,1.9-2.8,2.2-.5.3-1,.4-1.6.4s-.7,0-.8,0c-.1,0-.3,0-.4-.2-.2-.1-.3-.3-.3-.5,0-.3.2-.7.5-1.2,0-.2.2-.4.3-.5-.6.3-1.1.4-1.6.4s-.6,0-.9-.2c-.6-.3-1-.9-1-1.8s0-1.2.3-1.9c.1-.3.2-.6.3-.9,0-.3.1-.4.1-.5h0c0-.2,0-.2-.2-.2-.4,0-1.2.4-2.5,1.3-.7.5-1.8,1.6-3.3,3.1l-2.4,2.4h-.5c-.3,0-.5,0-.7-.2-.1-.1-.2-.2-.2-.4s.1-.7.4-1.3c1.5-3.2,2.6-5.3,3.5-6.3.3-.1.7-.2,1.1-.2s.5,0,.6.1c.2.2.4.4.4.6s0,.1,0,.2c-.1.2-.4.7-.9,1.5-.5.8-.8,1.4-1,1.6l-.2.3.3-.2c.2-.2.7-.6,1.3-1.1,1.2-1,2.2-1.6,3.1-1.9.4-.1.8-.2,1.2-.2.6,0,1,.1,1,.3.3.1.4.4.4.9s0,.9-.3,1.6c-.1.8-.2,1.5-.2,1.9s0,.6.2.7c0,0,.1,0,.3,0,.3,0,.9-.2,1.6-.6.2-.1.5-.3.8-.5.5-.6,1.1-1.3,1.7-2,2.2-2.3,4.1-3.4,5.8-3.4h.5c.7.1,1.1.3,1.3.7l.2.3.3-.2c.7-.5,1.5-.8,2.2-.8s1.1.1,1.1.4c0,.3-.3.8-.8,1.6-.5.8-1.1,1.7-1.6,2.7-1.1,2.2-1.8,3.8-2.1,4.9,0,0,.2,0,.4-.3.2-.2.5-.4.8-.7,2.2-1.9,4-3.4,5.3-4.4s2.3-1.5,2.8-1.5h0c.3,0,.4.1.4.2ZM106.4,134.9c0-.1,0-.2-.2-.3,0,0,0-.1-.2-.1-.1,0-.3.1-.6.3-.4.2-.9.5-1.2.8-1.1,1-2.2,2.1-3.3,3.4-.2.3-.4.4-.4.5h0c0,0,.3-.2.8-.5.5-.3,1.2-.9,2.3-1.7,1.1-.8,1.8-1.3,2.2-1.7.4-.3.6-.6.6-.7ZM101.9,149l-.7.7c-1.1,1.3-2.2,2.6-3.2,4-1.2,2.1-1.8,3.4-1.8,3.9s0,.1,0,.1c0,0,.3-.3.8-.8,1.4-1.6,2.8-3.8,4.2-6.6l.7-1.4Z"></path><path class="cls-18" d="M165.9,121.6c-1.9,2.6-3.9,5.9-5.9,9.9-2,4-3.7,8-5.1,11.8-1.4,3.8-2.1,6.6-2.1,8.1v.2s0,.7,0,.7h.9c.2,0,.3,0,.4.2,0,0,0,.1,0,.2,0,.3-.5.5-1.4.6-.2,0-.4,0-.6,0-.9,0-1.3-.7-1.3-1.9,0-1.9.6-4.7,1.9-8.5,1.3-3.7,2.9-7.6,4.9-11.7,1.3-2.7,2.5-4.9,3.5-6.5h0c0,0-.3.1-.7.5-5.9,5.9-13.1,13.1-21.4,21.6-2.3,2.4-3.7,3.8-4.3,4.3-.6.5-1.2.7-1.8.7-1.2,0-1.7-.8-1.6-2.3,0-1.6.6-4.6,1.8-9.1.8-2.8,1.6-5.2,2.3-7.3,0,0-.2.1-.4.4-.2.3-.5.6-.8,1.1-.3.4-.7,1-1.1,1.5-3.6,4.9-6.2,8.4-7.7,10.3-1.5,1.9-3,3.5-4.3,4.8-1.6,1.6-2.8,2.6-3.7,3-.2.2-.7.3-1.5.3s-1,0-1.2-.2c-.2-.2-.3-.3-.3-.5s0-.3.2-.4c.1-.1.4-.2.7-.3,1.2-.1,3.1-1.6,5.7-4.3,2.1-1.9,5.3-5.9,9.7-11.8,2-2.7,3.7-5,5.1-6.9,1.4-1.9,2.2-3.1,2.5-3.6.3-.5.8-1.2,1.4-2.3.7-1.1,1.1-1.7,1.3-1.8.3,0,.6-.1.9-.1.5,0,.8,0,.9.3.1,0,.2.2.2.3,0,.3-.3,1-1,2.1-2.9,4.8-5.3,10.6-7.2,17.5-1.1,3.9-1.6,6.4-1.6,7.5s0,.4,0,.5c0,0,0,.1.1.1s.3-.2.7-.5c.3-.3,1.6-1.6,4-3.9,2.4-2.4,5.3-5.2,8.7-8.6,7.4-7.4,12.4-12.3,14.8-14.6,1.8-1.7,3-2.9,3.7-3.7.9-1.2,1.7-1.7,2.6-1.7s1.1.2,1.1.6c0,.2-.1.3-.3.5-.8.8-1.8,1.9-2.8,3.3ZM184.9,145.3c0,.2,0,.4,0,.5,0,.2,0,.4.2.4.1.1.2.2.2.3s0,.2-.2.3c-.1.1-.3.2-.5.2s-.4,0-.6-.3c-.2-.2-.4-.8-.4-1.6v-.5c.2-2,1.5-5.2,3.9-9.7l.7-1.3-.6.6c-.6.5-1.8,1.8-3.7,3.6-1.1,1-1.9,1.8-2.5,2.3-.6.5-1,.9-1.2.9-.4.2-.9.3-1.3.3s-.6,0-.8-.1c-.4-.3-.6-.7-.6-1,0-.7.3-1.7,1-2.9.1-.3.3-.5.5-.8-.2.1-.4.3-.6.4-2.1,1.6-3.7,2.4-4.7,2.4s-.5,0-.7-.1c-1.3-.4-2-1.2-2-2.5s0-.8.2-1.3c.1-.4.2-.6.2-.7,0,0-.2.2-.6.5-.4.3-.9.7-1.4,1.2-.5.5-1.1.9-1.7,1.4-.6.5-1,.9-1.4,1.2-1,1-1.9,1.5-2.8,1.5s-.4,0-.6,0c-.5-.1-.8-.5-.8-1.1s.7-2.1,2.1-3.8c1.4-1.7,2.7-2.9,4-3.6.3-.2.9-.4,1.7-.4h.5c.9,0,1.3.2,1.4.5.2.2.3.3.3.5v.3c0,0,.3-.1.6-.4.2-.2.6-.3,1.2-.3s.6,0,.7,0c.1,0,.2.2.3.3,0,0,0,.1,0,.2,0,.2-.1.4-.4.8-1,1.7-1.5,3-1.5,3.8s.2.8.7,1c.3,0,1.1-.3,2.1-1,.9-.6,2.4-1.5,4.4-2.9.1-.2.3-.3.4-.5,1.4-1.5,2.9-2.2,4.4-2.3h.9c0,0,.4.3.4.3.2.3.4.5.4.7s0,.2.1.3c0,0,.2-.2.6-.5.3-.3.8-.7,1.3-1.2,1.2-1.2,2.1-2.2,2.7-3,1.8-2.7,3.6-4.9,5.4-6.7l.9-.9h.8c.4,0,.6,0,.7,0,.1,0,.2,0,.2.2,0,0,0,.1,0,.2,0,.3-.4.8-1.3,1.6-2.6,2.7-5.1,6-7.5,10-3.7,5.9-5.7,10.1-6.1,12.6ZM170.9,133.8c0-.2-.2-.4-.6-.8h0c-.5,0-1.5.9-3.2,2.6-1,1.2-1.6,2.1-2,2.7v.2s.3-.2.7-.5c.4-.3,1.3-1,2.6-2.1.5-.4.9-.7,1.3-1,.4-.3.8-.6,1.2-1.1ZM185.8,133.6c0-.2,0-.4-.1-.6,0-.2-.1-.3-.3-.3s-.5.2-1,.5c-.9.6-1.8,1.5-2.6,2.8-.4.6-.8,1.3-1.1,1.9-.3.7-.5,1.1-.5,1.3s0,0,0,0l.8-.6c2-1.8,3.6-3.2,4.7-4.4.1-.2.2-.5.2-.8ZM206.9,134.1h0c0,.2-.3.5-.8.8-.6.4-1.9,1.1-3.9,2.3-2.8,1.6-4.7,2.6-5.7,2.8-.5.1-1.1.2-1.6.2s-.9,0-1.2-.2c-1.1-.4-1.6-1.2-1.6-2.3s0-.3,0-.5c.7-2.6,2.2-4.7,4.6-6.2.7-.3,1.3-.5,2-.5s1,.1,1.4.4c.3.2.5.5.5.8,0,.5-.4,1.1-1.1,1.8-1.5,1.6-2.9,2.4-4,2.4h-.6s-.2.4-.2.4c-.2.6-.3,1.1-.3,1.6s0,.3,0,.5c.1.5.4.7,1,.7s.6,0,1-.2c.7-.2,1.6-.5,2.6-1.1,1-.5,2.7-1.5,5.1-2.8.8-.4,1.3-.8,1.7-.9.4-.2.6-.3.7-.3.2,0,.3,0,.3.2ZM195.4,135.3s0,0,0,0l.4-.2c.8-.4,1.5-.9,2.2-1.6.6-.7.9-1.2.9-1.5s0-.2-.2-.2c-.2,0-.8.4-1.8,1.2-1,1.1-1.5,1.8-1.5,2.2Z"></path><path class="cls-16" d="M236.4,131.9c0,0,.1.1.1.2,0,.2-.3.3-.9.4-2.5.2-6.7,1.2-12.4,3l-1.2.4-1.5,3c-1.8,3.6-3.1,6.5-3.8,8.9-.6,1.7-.9,3.1-.9,4.2s.3,1.7.8,1.8c.2.1.3.2.5.2s.3,0,.6-.1c1.8-.5,4.2-2,7.2-4.3,3.4-2.8,6.3-5.3,8.7-7.5.5-.6.9-.9,1.2-.9s.5,0,.5.2c0,0,0,.1,0,.2-.1.2-.5.6-1.1,1.2-.6.6-1.4,1.4-2.4,2.3-1,.9-2,1.8-3.2,2.8-3.2,2.8-5.6,4.7-7.2,5.7-1.6,1-3,1.5-4.3,1.5h-.5c-.5,0-.8,0-1.1-.2-1.2-.5-1.8-1.6-1.8-3.2s0-1.2.2-1.8c.4-2.3,1.7-5.7,3.8-10.2.4-.8.6-1.4.8-1.7.2-.4.3-.6.3-.7s0,0,0,0h0c-.2,0-.6.2-1.3.5-.8.3-1.3.5-1.4.5-.3,0-.5-.2-.6-.5h0c.3-.4,1.2-.8,2.9-1.4l1.4-.6.6-1.1c2.3-4,4.6-7.7,7.1-11l1-1.3h-.5c-2.5.5-5.7,1.4-9.7,2.6-.7.2-1.1.3-1.2.3-.2,0-.6-.3-1.1-.8h0c0-.3.6-.7,1.9-1.1,3-1,6.3-1.8,9.8-2.4l2.2-.4,1-1c.6-.6,1-1,1.3-1.2.3-.1.7-.2,1.1-.2s.8,0,.9.3c.2.2.3.3.3.4s-.2.3-.6.7l-.6.6h.4c.1-.1.4-.1.9-.2.5,0,1.1-.1,1.8-.2,7.8-.9,13.9-1.3,18.3-1.3s3.3,0,4.5.3c1.3.2,2,.5,2,.9s0,.1-.1.2c0,0-.2.1-.4.1s-.3,0-.6,0c-1.2-.1-2.9-.2-5.1-.2s-2.7,0-3.8.1c-3.2.2-6.6.5-10.4.9-4.4.5-7.4.9-8.9,1.1-.1,0-.5.4-1,1.1-.5.7-1.2,1.5-1.9,2.5-.7,1-1.4,1.9-2,2.9-1.6,2.5-2.9,4.5-3.7,6.1-.1.2-.2.3-.2.4h0c0,0,0,0,.1,0,1.5-.5,3.6-1,6.2-1.7,2.2-.6,4-.9,5.4-1.1.5,0,1-.1,1.2-.1.4,0,.6,0,.7.2ZM283.2,133.9c0,.1-.3.4-1,.8-3.2,2.1-6.1,4.1-8.8,6.2,0,0-.2.3-.5.8-.2.4-.5,1-.9,1.7-1.6,3.5-3.1,6.1-4.5,7.7-1.6,1.9-3,2.9-4.2,2.9s-.8,0-.9-.3c-.2,0-.3-.3-.3-.9s.3-1.7,1-2.8c1.2-2,3.1-4.1,5.7-6.4l1.1-1,.6-1.3c1.5-3.3,3-6.2,4.4-8.6v-.2c0,0,0,0-.3.3-.2.1-.6.5-1.4,1.1-.8.6-1.7,1.3-2.7,2.2-2.7,2.1-4.3,3.3-4.9,3.7-.6.4-1.2.6-1.8.6-1,0-1.5-.4-1.5-1.2,0-.5.2-1.1.6-2,0,0,0,0-.1,0-.6.3-1.1.6-1.4.8l-.5.3.3.5c.1.3.2.6.2,1,0,.8-.4,1.7-1.2,2.7-.8,1-1.8,1.9-3.2,2.8-1,.6-1.9.9-2.9.9s-1.1-.1-1.1-.3c-.2-.2-.3-.4-.3-.7s.1-.6.3-1c.7-1.4,2.2-2.9,4.5-4.4.7-.5,1.1-.8,1.2-.9,0,0-.2-.1-.6-.2-.4,0-1-.1-1.6-.2-1.3,0-2.1-.2-2.4-.6,0-.1-.1-.2-.2-.3-1.6,1.1-2.9,1.7-3.7,1.7s-.5,0-.7-.1c-1.3-.4-2-1.2-2-2.5s0-.8.2-1.3c.1-.4.2-.6.2-.7,0,0-.2.2-.6.5-.4.3-.9.7-1.4,1.2-.5.5-1.1.9-1.7,1.4-.6.5-1,.9-1.4,1.2-1,1-1.9,1.5-2.8,1.5s-.4,0-.6,0c-.5-.1-.8-.5-.8-1.1s.7-2.1,2.1-3.8c1.4-1.7,2.7-2.9,4-3.6.3-.2.9-.4,1.7-.4h.5c.9,0,1.3.2,1.4.5.2.2.3.3.3.5v.3c0,0,.3-.1.6-.4.2-.2.6-.3,1.2-.3s.6,0,.7,0c.1,0,.2.2.3.3,0,0,0,.1,0,.2,0,.2-.1.4-.4.8-1,1.7-1.5,3-1.5,3.8s.2.8.7,1c.3,0,1.1-.3,2.1-1,.5-.3,1.1-.7,1.8-1.1.4-.6,1.1-1.4,2.1-2.3,2.3-2.2,4.3-3.2,6-3.2h.3c.9,0,1.3.2,1.3.7s-.3.6-1,.7c-.8.1-1.7.5-2.8,1.3-1.3,1-2.4,2-3.3,3l-.6.7h1.3c.9.2,1.5.3,1.9.5l.7.3,1.3-.7c.5-.2.9-.5,1.4-.8.1-.2.2-.5.4-.8.8-1.6,1.7-2.9,2.6-4.1.4-.5.7-.8,1-1s.6-.2,1.1-.2.6,0,.7,0c.1,0,.2.1.3.3.1.1.2.3.2.4,0,.2-.2.6-.6,1-.5.5-1,1.2-1.6,2.1,0,0,0,0,0,0,0,0,0,.2-.3.3-.3.5-.7,1.1-1,1.7-.3.6-.6,1.2-.9,1.7s-.4.9-.4.9h0c.1,0,.4-.2.9-.5.5-.4,1.3-.9,2.4-1.8,4.8-3.6,7.8-5.9,9-6.7.3-.3.6-.4,1-.4h.3c.7,0,1.1.2,1.1.5h0c0,.3-.3.9-1,1.8-.7,1-1.3,2-1.8,2.9-1.3,2.3-2.1,3.9-2.5,4.8l1.8-1.3c2.5-1.7,4.5-3.1,5.9-4,.5-.2.8-.4,1.1-.4s.3,0,.3.2ZM247.5,133.8c0-.2-.2-.4-.6-.8h0c-.5,0-1.5.9-3.2,2.6-1,1.2-1.6,2.1-2,2.7v.2s.3-.2.7-.5c.4-.3,1.3-1,2.6-2.1.5-.4.9-.7,1.3-1,.4-.3.8-.6,1.2-1.1ZM259.5,139.6c0-.2,0-.3-.1-.4h0c-.2,0-.7.3-1.6.9-.8.6-1.6,1.3-2.2,1.9-1.1,1.2-1.7,2.2-1.7,2.8s0,.3.1.4c0,.1.2.2.3.2.2,0,.5-.1.9-.4,1.8-1,3.1-2.3,4-3.8.3-.6.4-1.1.4-1.6ZM269,144.7s-.2.2-.5.5c-.3.3-.7.7-1.1,1.2-.4.5-.8.9-1.2,1.4-1.6,2-2.4,3.6-2.6,4.8v.5c0,0,.4-.4.4-.4.3-.3.7-.7,1.1-1.2.5-.6,1-1.2,1.4-1.9,1.2-2,2-3.6,2.5-4.8Z"></path></g></svg> 